<?xml version="1.0" encoding="utf-8"?>
<svg viewBox="0 0 500 500" width="500px" height="500px" xmlns="http://www.w3.org/2000/svg" xmlns:bx="https://boxy-svg.com"><defs><bx:export><bx:file format="svg" path="favicon.svg"/></bx:export></defs><g transform="matrix(0.191398, 0, 0, -0.191398, -242.641006, 767.437073)" fill="#5046ef" stroke="none" style=""><path d="M 2520.764 3673.263 C 2512.764 3669.263 2462.764 3647.263 2410.764 3622.263 C 2358.764 3598.263 2263.764 3555.263 2200.764 3528.263 C 2137.764 3500.263 2009.764 3442.263 1915.764 3398.263 C 1822.764 3354.263 1714.764 3307.263 1676.764 3294.263 C 1475.764 3225.263 1409.764 3119.263 1481.764 2979.263 C 1491.764 2959.263 1505.764 2940.263 1511.764 2938.263 C 1518.764 2936.263 1511.764 2917.263 1491.764 2890.263 C 1439.764 2814.263 1440.764 2701.263 1494.764 2649.263 L 1518.764 2626.263 L 1489.764 2587.263 C 1438.764 2517.263 1440.764 2427.263 1494.764 2347.263 C 1516.764 2315.263 1450.764 2210.263 1450.764 2171.263 C 1450.764 2122.263 1447.007 2069.355 1497.764 2033.263 C 1502.234 2031.609 1509.453 2025.204 1525.84 2019.554 C 1905.925 1885.176 2093.129 1800.938 2594.82 1730.059 C 2607.16 1724.292 2647.696 1730.272 2656.61 1737.08 C 2971.521 1855.194 3352.467 2053.877 3626.209 2231.617 C 3670.813 2276.065 3665.192 2326.639 3655.764 2380.263 C 3651.325 2405.508 3630.764 2394.263 3630.764 2465.263 C 3630.764 2529.263 3633.764 2543.263 3651.764 2558.263 C 3681.764 2583.263 3702.764 2628.263 3695.764 2651.263 C 3691.764 2661.263 3675.764 2677.263 3659.764 2685.263 C 3631.764 2700.263 3630.764 2703.263 3630.764 2775.263 C 3630.764 2844.263 3632.764 2851.263 3656.764 2867.263 C 3707.764 2900.263 3706.764 2963.263 3654.764 2991.263 C 3632.764 3002.263 3630.764 3010.263 3630.764 3077.263 C 3630.764 3145.263 3632.764 3151.263 3655.764 3162.263 C 3684.764 3175.263 3704.764 3224.263 3690.764 3250.263 C 3685.764 3259.263 3669.764 3275.263 3655.764 3284.263 C 3633.764 3299.263 3630.764 3307.263 3630.764 3360.263 C 3630.764 3409.263 3633.764 3421.263 3650.764 3430.263 C 3675.764 3443.263 3676.764 3477.263 3653.764 3484.263 C 3632.764 3490.263 3566.764 3503.263 3229.764 3565.263 C 3094.764 3590.263 2905.764 3626.263 2810.764 3645.263 C 2648.764 3678.263 2556.764 3686.263 2520.764 3673.263 Z M 3550.764 3349.263 C 3550.764 3316.263 3554.764 3281.263 3560.764 3271.263 C 3568.764 3255.263 3544.764 3240.263 3352.764 3142.263 C 3233.764 3082.263 3024.764 2975.263 2888.764 2906.263 C 2752.764 2837.263 2633.764 2780.263 2623.764 2780.263 C 2606.764 2780.263 2475.764 2807.263 1880.764 2936.263 C 1740.764 2966.263 1614.764 2998.263 1602.764 3006.263 C 1545.764 3043.263 1540.764 3135.263 1593.764 3154.263 C 1623.764 3165.263 1668.764 3156.263 2368.764 3006.263 C 2602.764 2956.263 2631.764 2953.263 2675.764 2976.263 C 2810.764 3046.263 2865.764 3074.263 3380.764 3331.263 C 3465.764 3374.263 3538.764 3409.263 3543.764 3409.263 C 3547.764 3410.263 3550.764 3383.263 3550.764 3349.263 Z M 3551.764 3027.263 L 3555.764 2948.263 L 3385.764 2861.263 C 3008.764 2667.263 2872.764 2595.263 2800.764 2555.263 C 2759.764 2532.263 2702.764 2502.263 2673.764 2490.263 L 2621.764 2468.263 L 2503.764 2494.263 C 2396.764 2517.263 2064.764 2592.263 1915.764 2626.263 C 1882.764 2634.263 1799.764 2652.263 1730.764 2665.263 C 1599.764 2691.263 1590.764 2696.263 1564.764 2757.263 C 1547.764 2796.263 1560.764 2841.263 1593.764 2859.263 C 1617.764 2872.263 1744.764 2848.263 2090.764 2765.263 C 2351.764 2703.263 2562.764 2659.263 2606.764 2658.263 C 2638.764 2658.263 2670.764 2668.263 2727.764 2697.263 C 2964.764 2816.263 3133.764 2902.263 3280.764 2979.263 C 3417.764 3050.263 3540.764 3109.263 3547.764 3106.263 C 3547.764 3105.263 3550.764 3070.263 3551.764 3027.263 Z M 3550.764 2741.263 C 3550.764 2703.263 3552.764 2666.263 3555.764 2658.263 C 3560.764 2644.263 3531.764 2628.263 3265.764 2493.263 C 3183.764 2451.263 3086.764 2400.263 3050.764 2380.263 C 3014.764 2359.263 2910.764 2304.263 2817.764 2256.263 C 2631.764 2160.263 2623.764 2159.263 2501.764 2190.263 C 2458.764 2201.263 2345.764 2226.263 2249.764 2245.263 C 2153.764 2265.263 2003.764 2298.263 1915.764 2320.263 C 1827.764 2341.263 1720.764 2365.263 1678.764 2375.263 C 1612.764 2389.263 1597.764 2396.263 1578.764 2422.263 C 1537.764 2480.263 1563.764 2563.263 1622.764 2562.263 C 1634.764 2562.263 1728.764 2543.263 1830.764 2520.263 C 1932.764 2498.263 2100.764 2461.263 2205.764 2439.263 C 2309.764 2417.263 2439.764 2388.263 2495.764 2375.263 C 2550.764 2361.263 2606.764 2350.263 2618.764 2350.263 C 2631.764 2350.263 2735.764 2398.263 2848.764 2457.263 C 3235.764 2656.263 3535.764 2809.263 3543.764 2809.263 C 3547.764 2810.263 3550.764 2779.263 3550.764 2741.263 Z M 3550.764 2438.263 C 3550.764 2403.263 3553.764 2366.263 3556.764 2355.263 C 3560.764 2338.263 3549.764 2328.263 3483.764 2293.263 C 3440.764 2271.263 3395.764 2249.263 3384.764 2246.263 C 3372.764 2242.263 3296.764 2203.263 3214.764 2158.263 C 2981.764 2032.263 2640.764 1860.263 2622.764 1860.263 C 2613.764 1860.263 2549.764 1873.263 2480.764 1890.263 C 2264.764 1942.263 1917.764 2021.263 1860.764 2031.263 C 1615.764 2075.263 1560.764 2101.263 1560.764 2177.263 C 1560.764 2250.263 1589.764 2265.263 1696.764 2245.263 C 1775.764 2231.263 2175.764 2141.263 2452.764 2075.263 C 2532.764 2056.263 2607.764 2040.263 2618.764 2040.263 C 2636.764 2040.263 2733.764 2088.263 3115.764 2287.263 C 3329.764 2398.263 3533.764 2500.263 3542.764 2500.263 C 3546.764 2500.263 3550.764 2472.263 3550.764 2438.263 Z"/></g></svg>